<svg t="1650606315730" class="icon" viewBox="0 0 1024 1024" version="1.1" xmlns="http://www.w3.org/2000/svg" p-id="23951" width="128" height="128"><path d="M939.758009 879.302926c25.141356-25.141356 25.141356-66.283879 0-91.429905l-231.176239-231.171569c-25.136685-25.141356-25.136685-66.274538 0-91.420565l230.162739-230.153397c25.136685-25.141356 25.136685-66.283879 0-91.425235l-58.442093-58.437422c-25.141356-25.141356-66.283879-25.141356-91.429906 0l-230.144056 230.153397c-25.146026 25.141356-66.283879 25.141356-91.425236 0L236.136321 84.241991c-25.141356-25.136685-66.283879-25.136685-91.429906 0L84.241991 144.706415c-25.136685 25.141356-25.136685 66.283879 0 91.429906l231.171568 231.162227c25.141356 25.141356 25.141356 66.283879 0 91.425235l-230.158068 230.153397c-25.141356 25.141356-25.141356 66.283879 0 91.425236l58.437423 58.442093c25.136685 25.141356 66.279209 25.141356 91.425235 0l230.153397-230.153398c25.141356-25.146026 66.283879-25.146026 91.425236 0l231.171568 231.171569c25.141356 25.141356 66.283879 25.141356 91.420565 0l60.469094-60.459754z" fill="#FF8282" p-id="23952"></path><path d="M833.583303 993.646355c-26.673283 0-51.702547-10.340509-70.482668-29.11129l-231.171568-231.171568c-5.543895-5.548566-12.979348-8.60308-20.942568-8.60308s-15.398672 3.054514-20.942567 8.59841l-230.158068 230.158067c-18.780121 18.775451-43.809385 29.111289-70.482668 29.11129-26.677954 0-51.707217-10.340509-70.477997-29.11596l-58.437423-58.442093c-38.863315-38.858644-38.863315-102.097351 0-140.965336l230.158068-230.153397a29.648398 29.648398 0 0 0 0-41.885135L59.474276 260.904036c-38.858644-38.872656-38.853974-102.106692 0-140.965336L119.9387 59.474276C138.718821 40.698825 163.752755 30.358316 190.421368 30.358316s51.702547 10.335839 70.477997 29.111289l231.171568 231.176239c5.543895 5.543895 12.979348 8.593739 20.942568 8.593739s15.398672-3.054514 20.947238-8.59841l230.139385-230.153397c18.780121-18.775451 43.814055-29.11596 70.487339-29.11596 26.677954 0 51.707217 10.340509 70.487338 29.11596l58.437423 58.437423c38.858644 38.863315 38.858644 102.097351 0.00467 140.960665l-230.167408 230.158068a29.657739 29.657739 0 0 0 0.00467 41.885135l231.176239 231.166897c38.858644 38.872656 38.858644 102.106692 0 140.974677l-60.469095 60.459754c-18.77078 18.775451-43.804714 29.11596-70.477997 29.11596z m-322.596804-338.943589c26.673283 0 51.711888 10.34518 70.482668 29.12063l231.171569 231.166898a29.363497 29.363497 0 0 0 20.937896 8.598409 29.358827 29.358827 0 0 0 20.937897-8.593738l60.469095-60.464424a29.657739 29.657739 0 0 0-0.004671-41.894476l-231.176239-231.166898c-38.849303-38.858644-38.849303-102.09268-0.00467-140.955995l230.172079-230.158067a29.657739 29.657739 0 0 0-0.004671-41.889805l-58.437422-58.437423c-5.548566-5.543895-12.984018-8.593739-20.947238-8.593738s-15.403342 3.054514-20.947238 8.598409l-230.139385 230.153397c-18.780121 18.775451-43.814055 29.11596-70.482668 29.11596-26.673283 0-51.702547-10.340509-70.477998-29.11596L211.368605 109.009706a29.377509 29.377509 0 0 0-20.942567-8.593739 29.396191 29.396191 0 0 0-20.951908 8.598409L109.009706 169.47413a29.66708 29.66708 0 0 0 0.00467 41.899146L340.181274 442.530833c38.863315 38.867985 38.863315 102.102021 0 140.965336L110.023207 813.649566a29.648398 29.648398 0 0 0 0 41.885134l58.437422 58.446764a29.377509 29.377509 0 0 0 20.937897 8.593739 29.377509 29.377509 0 0 0 20.947238-8.59841l230.153397-230.153397c18.775451-18.775451 43.809385-29.120631 70.487338-29.12063z" fill="#6E6E96" p-id="23953"></path></svg>